<?xml version="1.0" standalone="no"?>
<!DOCTYPE svg PUBLIC "-//W3C//DTD SVG 20010904//EN"
 "http://www.w3.org/TR/2001/REC-SVG-20010904/DTD/svg10.dtd">
<svg version="1.0" xmlns="http://www.w3.org/2000/svg"
 width="700.000000pt" height="700.000000pt" viewBox="0 0 700.000000 700.000000"
 preserveAspectRatio="xMidYMid meet">
<metadata>
Created by potrace 1.11, written by Peter Selinger 2001-2013
</metadata>
<g transform="translate(0.000000,700.000000) scale(0.100000,-0.100000)"
fill="#000000" stroke="none">
<path d="M1776 6983 c-161 -42 -294 -167 -353 -334 l-27 -74 -2 -1370 c-1
-753 -2 -1373 -3 -1377 0 -5 -43 -8 -95 -8 -109 0 -161 -17 -215 -71 -58 -59
-65 -86 -68 -265 -3 -177 4 -212 58 -277 48 -58 108 -81 219 -83 52 -1 97 -3
100 -3 3 -1 5 -596 5 -1324 -1 -1050 2 -1335 12 -1387 38 -189 187 -344 378
-394 53 -14 243 -16 1720 -15 1822 0 1705 -4 1829 61 73 39 171 134 208 204
58 107 60 132 63 579 2 456 0 472 -58 496 -36 15 -63 15 -95 -3 -50 -27 -52
-36 -52 -473 -1 -373 -2 -411 -20 -457 -29 -77 -84 -136 -159 -172 l-66 -30
-1656 0 -1656 0 -66 32 c-77 38 -128 93 -156 166 -19 50 -20 90 -20 1676 0
1535 1 1628 17 1677 33 94 105 168 202 208 40 17 82 19 405 21 198 1 370 3
383 3 13 1 37 14 53 30 38 38 40 92 5 136 l-24 30 -409 0 c-406 0 -408 0 -473
-24 -36 -13 -81 -34 -100 -46 -19 -12 -41 -25 -48 -29 -10 -6 -12 238 -12
1224 0 1187 1 1232 19 1281 37 97 114 167 209 192 74 19 3300 17 3357 -2 91
-31 161 -99 196 -190 18 -49 19 -94 19 -1282 l0 -1231 -36 22 c-59 37 -106 57
-171 74 -54 14 -187 16 -1133 16 -997 0 -1074 -1 -1101 -17 -62 -37 -58 -139
8 -174 18 -10 263 -13 1096 -14 1019 -1 1074 -2 1117 -20 88 -36 146 -89 186
-172 l29 -58 5 -1051 c5 -1155 1 -1073 66 -1100 42 -18 96 -2 120 34 18 26 19
67 19 766 l1 739 99 2 c118 2 163 18 217 76 55 59 69 116 67 286 -1 125 -3
146 -24 190 -54 113 -112 142 -290 146 l-69 2 -2 1370 c-1 1248 -3 1375 -18
1429 -45 160 -168 290 -327 348 l-64 23 -1680 2 c-1488 1 -1687 0 -1739 -14z
m-385 -3371 c4 -23 4 -259 1 -269 -3 -9 -29 -13 -83 -13 -64 0 -81 3 -86 16
-11 30 -7 242 5 257 12 14 161 22 163 9z m4380 -9 c20 -16 17 -251 -2 -264 -8
-5 -48 -8 -88 -7 l-75 3 -1 135 c0 74 0 138 2 141 5 11 150 4 164 -8z"/>
<path d="M3393 6662 c-232 -83 -293 -384 -110 -549 69 -63 112 -78 217 -78 84
0 101 3 145 27 50 26 108 81 137 128 95 157 27 376 -143 460 -63 31 -178 37
-246 12z m194 -227 c84 -96 -15 -240 -131 -191 -45 19 -68 50 -73 98 -12 112
132 177 204 93z"/>
<path d="M2340 5830 c-120 -31 -204 -78 -290 -161 -135 -131 -197 -295 -187
-489 16 -274 196 -494 466 -569 98 -27 255 -24 351 7 113 37 224 114 299 208
88 111 134 242 134 389 1 112 -14 177 -65 284 -72 151 -224 278 -393 327 -82
23 -232 26 -315 4z m333 -233 c159 -79 248 -234 234 -411 -6 -84 -27 -142 -77
-214 -113 -162 -340 -223 -517 -140 l-44 21 125 127 c69 70 126 131 127 136 0
5 2 18 4 28 9 49 -48 116 -95 111 -8 -1 -24 -3 -34 -3 -11 -1 -74 -56 -141
-122 -66 -66 -126 -120 -132 -120 -10 0 -38 63 -49 111 -22 97 -2 224 49 311
53 91 167 178 253 194 16 3 31 8 34 11 3 3 46 3 96 1 81 -3 100 -8 167 -41z"/>
<path d="M4425 5842 c-186 -19 -388 -166 -475 -346 -145 -299 -42 -646 242
-819 102 -62 183 -82 323 -82 104 1 130 4 198 28 196 69 330 203 398 402 33
98 34 277 2 380 -73 230 -269 398 -503 433 -62 10 -120 11 -185 4z m225 -224
c135 -46 231 -150 270 -292 73 -264 -124 -525 -400 -529 -76 -1 -168 20 -204
46 -18 13 -13 21 90 123 60 60 117 120 127 134 53 76 -32 183 -120 149 -14 -5
-77 -61 -140 -124 -63 -63 -118 -115 -123 -115 -5 0 -19 21 -32 48 -18 39 -22
65 -22 157 -1 108 0 113 37 187 54 110 143 186 262 224 58 19 189 15 255 -8z"/>
<path d="M2330 3753 c-38 -25 -208 -216 -220 -248 -18 -47 -3 -79 81 -172 127
-140 143 -153 188 -153 31 0 46 7 71 32 29 28 32 37 27 75 -4 35 -16 55 -66
112 -33 38 -61 73 -61 78 0 5 16 24 37 43 59 56 93 109 93 146 0 72 -92 125
-150 87z"/>
<path d="M4760 3759 c-23 -9 -43 -29 -145 -139 -80 -88 -95 -111 -95 -150 0
-35 22 -69 95 -145 11 -11 39 -41 62 -67 56 -62 81 -78 124 -78 26 0 44 8 63
26 14 15 26 29 27 33 0 3 2 15 5 26 6 32 -12 72 -55 118 -22 23 -49 53 -60 66
l-21 24 64 71 c71 79 86 118 62 163 -8 16 -21 34 -28 40 -21 17 -71 23 -98 12z"/>
<path d="M1997 2935 c-85 -34 -140 -85 -180 -165 l-22 -45 0 -1050 0 -1050 27
-51 c34 -65 89 -118 158 -152 l55 -27 1455 0 c1378 0 1458 1 1507 18 66 23
146 94 181 161 l27 51 3 1037 c2 1021 2 1037 -18 1088 -37 93 -108 161 -204
193 -44 15 -181 17 -1490 17 l-1441 -1 -58 -24z m2943 -195 c36 -19 46 -31 58
-70 7 -24 10 -345 9 -1012 -2 -975 -2 -977 -23 -1005 -11 -15 -32 -34 -45 -40
-19 -10 -337 -13 -1445 -13 l-1421 0 -27 21 c-55 43 -53 -5 -52 1064 1 935 2
991 19 1016 17 26 51 45 91 51 11 2 648 3 1415 2 1148 0 1400 -3 1421 -14z"/>
</g>
</svg>
